<svg id="Layer_1" data-name="Layer 1" xmlns="http://www.w3.org/2000/svg" viewBox="0 0 613.16 445.7"><defs><style>.cls-1{fill:#231f20;}</style></defs><title>logo-website</title><path class="cls-1" d="M408.45,297q1.36,60.16,2.05,105.27t1.37,75.88q.67,36.24.68,62.21A356.89,356.89,0,0,1,407.42,607a256.31,256.31,0,0,1-18.8,63.23q-13,28.71-34.18,47.17t-51.27,18.46q-36.24,0-55.37-14.7t-28-33.15q-8.89-18.46-10.25-34.52t-1.37-18.8q0-5.48,6.84-12.3t20.51-12.3a99.33,99.33,0,0,1,10.94-3.42A69.16,69.16,0,0,1,256,604.6a19.05,19.05,0,0,1,8.89.68,65.68,65.68,0,0,0-7.86,28,72,72,0,0,0,4.1,29.74,59.9,59.9,0,0,0,15.38,23.58q10.25,9.57,26,9.57,21.87,0,34.52-12.65a81.66,81.66,0,0,0,19.14-31.1,156.2,156.2,0,0,0,8.2-39q1.7-20.51,1.71-36.23,0-12.3-.34-31.79t-2.39-43.41a188.36,188.36,0,0,1-19.14,26.32,163.06,163.06,0,0,1-23.24,22.22A127.31,127.31,0,0,1,296,566a59.57,59.57,0,0,1-25,5.81q-21.2,0-34.18-13.33T217,525a197.84,197.84,0,0,1-9.23-43.75,430.45,430.45,0,0,1-2.39-43.41q0-15,1.37-36.57t3.42-41.36a343.55,343.55,0,0,1,5.13-34.52q3.08-14.69,6.49-16.75,19.82-11.62,39-13t28.71,4.79q-8.2,6.15-13.67,20.51a193.43,193.43,0,0,0-8.89,31.79,300.2,300.2,0,0,0-4.79,36.23q-1.38,18.81-1.37,33.84,0,12.3.68,29.39A293.76,293.76,0,0,0,264.55,485q2.39,15.73,7.18,26.66T284,522.57q15,0,28-10.94A109.07,109.07,0,0,0,335,484.29a147.74,147.74,0,0,0,15.38-35.21,126.49,126.49,0,0,0,5.47-35.21v-5.47q-1.38-17.77-2.73-33.84t-2.39-29.05q-1-13-1.37-21.53c-.23-5.69-.34-9.45-.34-11.28q0-6.83,9.23-12.3a67.58,67.58,0,0,1,20.51-7.86,73.68,73.68,0,0,1,20.51-1.71Q408.45,291.52,408.45,297Z" transform="translate(-205.42 -290.15)"/><path class="cls-1" d="M640.86,293.91a52.14,52.14,0,0,1,19.82-3.76,49.64,49.64,0,0,1,19.48,3.76q8.88,3.77,8.2,9.91-.69,4.79-1.37,18.8t-1.71,33.15q-1,19.15-2.39,41t-2.39,42.72q-1,20.86-1.37,38.62t-.34,27.34A170.29,170.29,0,0,0,680.16,528q1.36,8.89,3.42,17.43t6.15,12a48.29,48.29,0,0,1-11.28,2.73q-5.82.67-10.6,1.37a89.69,89.69,0,0,1-10.94.68q-11.63,0-19.48-4.79t-7.86-19.82q0-7.51,1-21.87T633,485a303.49,303.49,0,0,1-11.62,29.39A112.75,112.75,0,0,1,604.63,541a92.48,92.48,0,0,1-22.22,19.14,52.7,52.7,0,0,1-28,7.52,70.25,70.25,0,0,1-32.47-7.52,76.52,76.52,0,0,1-25.63-21.53q-10.94-14-16.41-34.52t-4.1-47.17q0-20.51.68-43.75.67-19.82,2.05-45.8t4.79-54q.67-2.72,9.57-6.84a112.25,112.25,0,0,1,19.82-6.84,68.72,68.72,0,0,1,21.19-2.05q10.25.69,15,8.2-3.43,12.3-6.84,29.05t-6.15,34.52q-2.74,17.78-4.1,34.86t-1.37,31.45q0,13,1.37,28.37A156.27,156.27,0,0,0,537,492.83q3.75,13.33,10.94,22.22a23,23,0,0,0,18.8,8.89q13,0,22.9-11.28t16.75-29.05A265.15,265.15,0,0,0,618,442.93q4.78-22.9,7.86-45.46t4.1-43.41q1-20.84,1.71-35.21V305.19Q631.63,297.67,640.86,293.91Z" transform="translate(-205.42 -290.15)"/><path class="cls-1" d="M788.5,488.39q13,0,21.53,7.52t8.54,21.19a52.14,52.14,0,0,1-3.08,17.09,48.16,48.16,0,0,1-10.25,16.75,55.85,55.85,0,0,1-18.46,13q-11.28,5.13-27,5.13-13.68,0-20.85-8.2t-7.18-20.51q0-20.51,16.41-36.23T788.5,488.39Z" transform="translate(-205.42 -290.15)"/></svg>